<?xml version="1.0" encoding="utf-8"?>
<!DOCTYPE svg PUBLIC "-//W3C//DTD SVG 1.0//EN" "http://www.w3.org/TR/2001/REC-SVG-20010904/DTD/svg10.dtd">
<svg version="1.0" xmlns="http://www.w3.org/2000/svg" width="512px" height="512px" viewBox="0 0 512 512" preserveAspectRatio="xMidYMid meet">
 <g fill="#0a6ebd" stroke="#0a6ebd" stroke-width="1">
  <path d="M231.5 504 c-47.9 -5.4 -88.8 -21.8 -127.8 -51.2 -12.3 -9.3 -37.1 -34.5 -46.9 -47.8 -25.4 -34.4 -40.9 -71.3 -47.3 -113 -2.5 -16.3 -3.1 -45.8 -1.1 -62.3 5.4 -46.7 20.5 -85 48.4 -122.7 9.2 -12.4 33 -37 44.7 -46.2 47 -36.9 102.4 -55.2 161.5 -53.5 40.1 1.2 71.6 9.2 107 27.2 65.5 33.4 113.3 95.5 129.4 168.1 4.9 22.3 6.8 53.1 4.7 75.4 -4.8 48.8 -21.2 90.4 -51.4 130.5 -7.2 9.5 -32.3 34.9 -42.2 42.7 -34.8 27.3 -74.8 44.6 -118.5 51.3 -12.3 1.9 -48.7 2.8 -60.5 1.5z m-103.9 -82.9 l6.8 -8.4 -4.9 -4 c-8.2 -6.6 -23.6 -22.7 -30.2 -31.2 -21.8 -28.8 -34.9 -60.8 -39.3 -96 -0.6 -4.9 -1.1 -16.2 -1.1 -25 0 -65.3 30.6 -123.7 85.2 -162.7 42.3 -30.2 102.8 -41.9 155.8 -30.2 25.7 5.7 51.3 17.6 73.9 34.1 4 3 7.9 5.6 8.6 5.9 0.8 0.3 4.5 -3.3 9.1 -8.8 l7.7 -9.2 -2.8 -2.4 c-9 -7.2 -32 -21.5 -45.9 -28.3 -23.6 -11.5 -43.7 -17.7 -69 -21 -13.3 -1.7 -46.1 -0.7 -60 2 -36.9 6.9 -72.8 22.7 -103.4 45.3 -11.6 8.6 -31.5 28.3 -39.9 39.5 -22.1 29.3 -35.2 62.4 -41.9 105.3 -2.5 16 -2.4 53.3 0 67.5 4 22.8 9.9 40.8 19.4 59.9 12 24 24.3 40.6 46.6 63 13.4 13.5 16 15.7 17.1 14.5 0.7 -0.8 4.4 -5.2 8.2 -9.8z m168.4 -77.6 l0 -47.5 47.5 0 47.5 0 0 -40 0 -40 -47.5 0 -47.5 0 0 -47.5 0 -47.5 -41 0 -41 0 0 47.5 0 47.5 -46.5 0 -46.5 0 0 40.5 0 40.5 47.5 0 47.5 0 0 47 0 47 40 0 40 0 0 -47.5z"/>
 </g>
</svg>